<?xml version="1.0" encoding="UTF-8"?><svg id="Layer_2" xmlns="http://www.w3.org/2000/svg" viewBox="0 0 74.01 65.46"><defs><style>.cls-1{fill:#fff;}.cls-2,.cls-3{fill:none;}.cls-3{stroke:#00ff48;stroke-miterlimit:10;}</style></defs><g id="Layer_2-2"><path class="cls-2" d="M20.14,37.77c-.64-1.73-2.8-3.28-5.24-4.53v16.61h3.14c3.2-4.99,3.17-9.21,2.1-12.08Z"/><path class="cls-2" d="M31.15,28.54c-.97-1.07-2.13-1.88-3.5-2.45-.16-.07-.34-.12-.51-.18.13.73.21,1.19.21,1.19,1.32,5.61,3.67,8.12,4.5,8.86.58.51,1.36.95,2.24,1.15-.04-1.73-.27-3.3-.74-4.7-.5-1.52-1.23-2.81-2.2-3.88Z"/><path class="cls-2" d="M48.59,34.32c-.06.79-.13,1.52-.2,2.17h2.32c.62-1.41,1.3-3.13,1.99-5.15.69-1.99,1.07-4.06,1.24-6.05h-6.08c.63,3.14.92,6.51.73,9.03Z"/><polygon points="14.9 50.39 14.9 49.84 14.75 49.84 14.9 50.39"/><path class="cls-1" d="M61.98,41.69c1.9,0,3.62-.49,5.17-1.48,1.55-.98,2.79-2.29,3.72-3.92.62-1.08,1.01-2.25,1.22-3.49-1.43-2.65-3.54-4.85-3.54-4.85,0,0-4.04-3.21-7.69-7.71l-6.95-.16c.15,1.6.18,3.37.02,5.2h7.94c.9,0,1.72.25,2.45.75s1.33,1.17,1.78,2c.45.83.67,1.77.67,2.8s-.22,1.98-.67,2.83c-.45.85-1.04,1.53-1.78,2.05-.73.52-1.55.77-2.45.77h-11.17c-1.2,2.75-1.98,3.74-2.36,3.8-.47.07-.28-.95.05-3.8h-7.78v-11.2h7.26c-.38-1.9-1.2-3.65-1.8-5.15l-8.72-.05c.29.71.52,1.28.63,1.62.57,1.71,2.71,8.42,1.37,12.36.17,1.11.26,2.26.26,3.47,0,2.6-.38,4.98-1.15,7.12-.76,2.13-1.85,3.97-3.25,5.52v4.03l5.4-2.02v-10.5h21.37Z"/><path class="cls-1" d="M30,53.79c2.03-.83,3.76-2.02,5.17-3.58,0-.01.02-.02.03-.03v-12.94c-.38,0-.76-.04-1.12-.12,0,.14.01.28.01.42,0,1.9-.25,3.62-.75,5.15-.5,1.53-1.22,2.83-2.17,3.88-.95,1.05-2.12,1.86-3.5,2.43-1.38.57-2.96.85-4.72.85h-4.91c-.26.41-.54.82-.84,1.24-1.02,1.4-2,2.72-2.91,3.96h8.92c2.5,0,4.77-.42,6.8-1.25Z"/><polygon points="14.6 25.24 14.9 25.24 14.9 24.79 14.6 25.24"/><path class="cls-1" d="M14.9,25.24h8.05c1.55,0,2.94.23,4.19.67-.23-1.33-.38-3.54-.57-5.6-1.01-.16-2.26-.27-3.37-.27h-7.86c-2.07,2.24-4.16,4.44-5.85,6.19v5.25c1.62.57,3.59,1.05,5.4,1.98v-8.22h-.3"/><path class="cls-1" d="M34.83,37.1l.38,13.09c1.4-1.54,2.77-3.41,3.53-5.54.77-2.15,1.16-4.61,1.16-7.21,0-1.21-.38-2.69-.55-3.8-.22.63-.59,1.64-1.01,2.09-.99,1.09-2.42,1.36-3.5,1.38Z"/><polygon class="cls-1" points="35.21 58.57 40.6 56.92 40.6 51.95 35.21 53.96 35.21 58.57"/><path class="cls-1" d="M9.5,20.04v6.19c1.68-1.75,3.77-3.95,5.85-6.19h-5.85Z"/><path class="cls-3" d="M26.3,3.27s1.19,5.75-2.62,10.91S1.42,29.75,1.42,29.75c0,0,16.93,3.41,18.64,8.02,1.15,3.1,1.1,7.78-2.95,13.31s-6.78,9.74-9.86,13.27l47.01-16.62s-1.07,3.58-6.61,7.05c0,0,9.58-1.82,16.87-6.1,5.95-3.5,8.83-6.68,8.98-11.37s-5.04-9.33-5.04-9.33c0,0-7.27-6.3-10.25-10.76-2.25-3.37-3.96-5.78-3.47-9.08,0,0-3.62,2.53-1.12,10.32,1.07,3.32,1.04,6.97-1.02,12.91s-3.72,8.64-4.3,8.72-.12-1.54.19-5.75,0-7.77-1.73-11.7-3.75-4.88-4.63-6.54c-2.09-3.96-.88-8.15-3.08-10.46,0,0-.99,4.95-2.53,7.05-2.38,3.24.7,7.07,1.36,9.05s3.45,10.71.44,14.01c-2.19,2.39-5.08,1.57-6.56.25-.57-.51-1.86-1.85-3.04-4.47-.93-2.07-1.44-4.31-1.62-6.58-.04-.49-.09-1.08-.15-1.79-.25-2.89.74-6.45,1.24-8.64.91-3.99.16-7.4-1.9-11.23Z"/><polygon class="cls-1" points="9.5 21.63 9.5 26.48 18.32 20.04 11.98 20.04 9.5 21.63"/></g></svg>