<?xml version="1.0" encoding="UTF-8"?><svg id="Layer_2" xmlns="http://www.w3.org/2000/svg" viewBox="0 0 52.8 40.28"><defs><style>.cls-1{fill:#fff;}</style></defs><g id="Layer_1-2"><path class="cls-1" d="M51.4,5.35c-.93-1.63-2.17-2.92-3.72-3.88-1.12-.69-2.34-1.12-3.65-1.31-.49-.07-1-.11-1.52-.11H10.32c-.39-.02-.77-.05-1.17-.05H0v35h9.15c2.5,0,4.77-.42,6.8-1.25,2.03-.83,3.76-2.02,5.18-3.58,1.42-1.55,2.51-3.4,3.27-5.55.77-2.15,1.15-4.52,1.15-7.12,0-.08,0-.15,0-.23,0-.01,0-.02,0-.03,0-.05-.01-.1-.02-.15-.09-.95-.31-2.05-1.6-3.58-1.6-1.89-3.89-2.26-3.89-2.26v5.99h0s0,.02,0,.03v.04h0c0,.06,0,.12,0,.19,0,1.9-.25,3.62-.75,5.15-.5,1.53-1.23,2.83-2.17,3.88-.95,1.05-2.12,1.86-3.5,2.43-1.38.57-2.96.85-4.73.85h-3.5V5.27h36.65c.69,0,1.35.12,1.97.34.16.05.31.11.46.18,2.09.93,3.55,3.03,3.55,5.47,0,2.61-1.68,4.83-4.02,5.65-.62.22-1.28.34-1.97.34h-8.29v-6s-.04,0-.11.02c-.47.1-2.39.59-3.78,2.23-1.36,1.61-1.53,2.75-1.62,3.73,0,0,0,0,0,0h0v23.04h5.4v-18.63h8.85c.52,0,1.03-.05,1.52-.12,1.31-.2,2.53-.64,3.65-1.36,1.55-.98,2.79-2.29,3.72-3.92.93-1.63,1.4-3.45,1.4-5.45s-.47-3.82-1.4-5.45Z"/></g></svg>