<?xml version="1.0" encoding="UTF-8"?><svg id="Layer_2" xmlns="http://www.w3.org/2000/svg" xmlns:xlink="http://www.w3.org/1999/xlink" viewBox="0 0 82.88 68.74"><defs><style>.cls-1{fill:#fff;}.cls-2,.cls-3{fill:none;}.cls-3{stroke:url(#linear-gradient);stroke-miterlimit:10;stroke-width:3px;}</style><linearGradient id="linear-gradient" x1="0" y1="34.37" x2="82.88" y2="34.37" gradientUnits="userSpaceOnUse"><stop offset="0" stop-color="#f47d22"/><stop offset="1" stop-color="#ed1c24"/></linearGradient></defs><g id="Layer_2-2"><path class="cls-2" d="M52.29,45.46c.19-.02.52-.31.94-.82h-1.17c-.06.56-.02.85.23.82Z"/><path class="cls-2" d="M35.97,35.37c-.5-1.52-1.23-2.81-2.2-3.88-.97-1.07-2.13-1.88-3.5-2.45-.91-.38-1.91-.61-2.99-.74.38,2.47.95,4.8.95,4.8,1.53,5.05,4.24,7.31,5.21,7.97.8.55,1.95,1,3.21,1.12.05-.55.08-1.12.08-1.7,0-1.9-.25-3.61-.75-5.12Z"/><path class="cls-2" d="M19.89,42.7c-.39-.81-1.24-1.57-2.37-2.27v12.37h.54c3.09-4.16,2.99-7.66,1.83-10.1Z"/><path class="cls-2" d="M57.55,36.92c1.29-2.9,1.66-5.98,1.52-8.68h-8.19c1.41,3.46,2.18,8.03,1.92,11.2h3.55c.39-.78.79-1.62,1.19-2.52Z"/><polygon class="cls-1" points="17.52 53.34 17.52 52.79 17.37 52.79 17.52 53.34"/><path class="cls-1" d="M12.12,22.99v5.61c2.23-1.85,4.57-3.82,6.61-5.61h-6.61Z"/><path class="cls-1" d="M74.84,32.95c-.11-1.67-.55-3.21-1.35-4.61-.93-1.63-2.17-2.92-3.72-3.88-1.55-.95-3.28-1.42-5.17-1.42h-.52c3.06,3.05,8.5,7.9,10.77,9.91Z"/><polygon class="cls-1" points="37.82 64.09 43.22 62.66 43.22 55.55 37.82 57.12 37.82 64.09"/><polygon class="cls-1" points="17.22 28.19 17.52 28.19 17.52 27.74 17.22 28.19"/><path class="cls-1" d="M32.62,56.74c2.03-.83,4.17-2.26,5.58-3.81,0-.01-.39.21-.38.2v-10.94c-.4.04-.8.03-1.18,0-.11,1.23-.32,2.39-.67,3.45-.5,1.53-1.22,2.83-2.17,3.88-.95,1.05-2.12,1.86-3.5,2.43-1.38.57-2.96.85-4.72.85h-7.51c-.46.61-.98,1.24-1.58,1.88-1.1,1.17-2.15,2.27-3.13,3.32h12.47c2.5,0,4.77-.42,6.8-1.25Z"/><path class="cls-1" d="M17.52,28.19h-.3l.3-.45v.45h8.05c.6,0,1.16.04,1.71.11-.08-.5-.14-1-.2-1.49-.11-1.02-.08-2.37.04-3.77-.43-.03-.86-.06-1.3-.06h-7.09c-2.04,1.79-4.38,3.76-6.61,5.61v9.38c1.97.7,3.92,1.52,5.4,2.45v-12.23Z"/><path class="cls-1" d="M52.06,44.64c.1-.94.51-2.68.73-5.05,0-.05,0-.1,0-.15h-9.58v-11.2h7.67c-.28-.68-.57-1.33-.89-1.9-.54-.95-1.23-2.09-1.99-3.3h-10.1c1.11,2.42,2.27,4.44,2.6,5.21.65,1.51,3.05,7.37,1.65,10.94.02.43.05.86.05,1.31,0,2.6-.38,4.98-1.15,7.12-.76,2.13-1.85,3.97-3.25,5.52v3.99l5.4-1.57v-10.91h8.84Z"/><path class="cls-1" d="M64.49,28.24c.9,0,1.72.25,2.45.75s1.33,1.17,1.78,2c.45.83.67,1.77.67,2.8s-.22,1.98-.67,2.83c-.45.85-1.04,1.53-1.78,2.05-.73.52-1.55.77-2.45.77h-8.14c-1.23,2.47-2.34,4.24-3.12,5.2h11.36c1.9,0,3.62-.49,5.17-1.48,1.55-.98,2.79-2.29,3.72-3.92.93-1.63,1.4-3.45,1.4-5.45,0-.29-.03-.56-.05-.84-2.27-2.01-7.71-6.86-10.77-9.91h-5.97c.49,1.34.87,3.16.97,5.2h5.42Z"/><path class="cls-1" d="M37.25,42.2l.62,11.72c1.4-1.54,3.08-4.18,3.84-6.32.77-2.15.78-4.54.78-7.14,0-.45-.3-.85-.33-1.28-.25.64-.61,1.22-1.14,1.67-.99.84-2.68,1.24-3.77,1.35Z"/><path class="cls-3" d="M26.97,10.94s-1.43,5.15-3.69,7.81c-4.14,4.89-19.76,16.83-19.76,16.83,0,0,14.39,2.97,16.37,7.12,1.33,2.79,1.27,7-3.41,11.98s-8.5,8.84-10.12,11.59l52.54-15.03s-2.53,3.63-6.1,7.67c0,0,11.17-2.55,18.53-6.41,6.62-3.47,9.68-5.45,10.05-9.71.35-4.03-5.48-8.92-5.48-8.92,0,0-10.86-9.53-13.45-12.56s-4.6-7.05-5.65-9.65c0,0-1.75,3.91,1.15,10.92,1.24,2.99,2.01,8.99-.38,14.34s-4.58,8.47-5.25,8.54.14-2.08.5-5.87-.8-9.71-2.8-13.25-6.17-9.68-7.82-12.83c-1.24-2.36-2.21-3.98-2.65-7.33,0,0-2.89,7.75-3.41,9.3-1.27,3.74,3.64,10.98,4.41,12.77s3.99,9.64.51,12.6c-2.53,2.15-5.87,1.41-7.59.22-.96-.66-3.68-2.92-5.21-7.97,0,0-.83-3.37-1.15-6.29-.28-2.6.78-7.36.96-9.41.26-3.05.04-4.78-1.06-6.46Z"/></g></svg>
